<svg xmlns="http://www.w3.org/2000/svg" width="32" height="32" enable-background="new 0 0 32 32" viewBox="0 0 32 32" id="poop-emoji"><path fill="#C69073" d="M25.882,21.5h-0.086c1.151-0.921,1.856-2.377,1.675-4.007
		c-0.257-2.313-2.342-3.993-4.668-3.993h-0.359c0.7-0.685,1.117-1.656,1.048-2.728C23.374,8.9,21.705,7.5,19.83,7.5H17.5
		c-2.209,0-4-1.791-4-4v-1h-0.274c-2.914,0-5.491,2.169-5.71,5.074C7.362,9.609,8.321,11.43,9.844,12.5H9.198
		c-2.334,0-4.424,1.691-4.672,4.012c-0.175,1.638,0.543,3.099,1.709,4.015c-2.821,0.15-5.027,2.616-4.704,5.542
		C1.814,28.633,4.121,30.5,6.701,30.5H11.5h9H26c2.805,0,5.011-2.567,4.396-5.48C29.956,22.933,28.015,21.5,25.882,21.5z"></path><path fill="#D0A48C" d="M3.032,27.068c-0.263-2.377,1.145-4.45,3.194-5.226c0.587-0.222,0.778-0.956,0.433-1.48
			c-0.537-0.815-0.817-1.803-0.632-2.851c0.439-2.493,2.104-3.447,3.456-3.808c0.663-0.176,0.962-0.945,0.576-1.512
			c-0.686-1.005-1.042-2.261-1.042-3.618C9.016,3.786,13.5,2.5,13.5,2.5h-0.274c-2.914,0-5.491,2.169-5.71,5.074
			C7.362,9.61,8.321,11.43,9.844,12.5H9.198c-2.334,0-4.424,1.691-4.672,4.012c-0.175,1.638,0.543,3.099,1.709,4.015
			c-2.821,0.15-5.027,2.615-4.704,5.542c0.199,1.804,1.408,3.246,3,3.953C3.725,29.252,3.161,28.239,3.032,27.068z"></path><path fill="#B28267" d="M30.396,25.02c-0.44-2.087-2.381-3.52-4.514-3.52h-0.086
			c1.151-0.922,1.856-2.377,1.675-4.007c-0.257-2.313-2.341-3.993-4.668-3.993h-0.359c0.7-0.685,1.117-1.656,1.048-2.728
			C23.374,8.9,21.705,7.5,19.83,7.5h-2.267L18.5,8c1.657,0,3,1.343,3,3c0,0.873-0.373,1.659-0.969,2.208
			C20.223,13.492,20.409,14,20.828,14l0,0c2.089,0,3.955,1.527,4.153,3.607c0.099,1.041-0.201,2.01-0.765,2.771
			c-0.701,0.945-0.65,2.242,0.135,3.118c0.714,0.797,1.148,1.849,1.148,3.003c0,1.754-1.014,3.258-2.479,4H26
			C28.805,30.5,31.011,27.933,30.396,25.02z"></path><path fill="#455A64" d="M26,31H6.701c-2.875,0-5.364-2.143-5.666-4.877c-0.168-1.524,0.28-3.001,1.262-4.158
		c0.748-0.882,1.759-1.502,2.87-1.78c-0.866-1.03-1.283-2.363-1.137-3.726c0.246-2.297,2.181-4.137,4.534-4.421
		C7.456,10.831,6.89,9.223,7.018,7.536C7.252,4.432,9.979,2,13.226,2H13.5C13.776,2,14,2.224,14,2.5v1C14,5.43,15.57,7,17.5,7h2.33
		c2.2,0,4.029,1.644,4.162,3.74c0.052,0.813-0.145,1.61-0.552,2.297c2.374,0.275,4.271,2.075,4.529,4.4
		c0.148,1.335-0.246,2.646-1.073,3.671c2.003,0.4,3.583,1.88,3.99,3.808c0.319,1.512-0.046,3.054-1,4.231
		C28.93,30.325,27.514,31,26,31z M9.198,13c-2.127,0-3.961,1.565-4.175,3.564c-0.146,1.371,0.422,2.705,1.521,3.568
		c0.164,0.129,0.231,0.346,0.168,0.544c-0.063,0.199-0.242,0.338-0.45,0.349c-1.236,0.066-2.404,0.645-3.204,1.586
		c-0.802,0.945-1.168,2.153-1.03,3.402C2.275,28.249,4.327,30,6.701,30H26c1.211,0,2.344-0.54,3.108-1.482s1.055-2.18,0.799-3.395
		C29.525,23.313,27.833,22,25.882,22c-0.212,0-0.444-0.134-0.515-0.335c-0.07-0.2-0.049-0.423,0.116-0.556
		c1.085-0.867,1.642-2.199,1.491-3.561C26.754,15.559,24.921,14,22.804,14h-0.359c-0.203,0-0.386-0.123-0.463-0.312
		c-0.077-0.188-0.032-0.403,0.113-0.546c0.627-0.613,0.955-1.466,0.899-2.338C22.894,9.231,21.504,8,19.83,8H17.5
		C15.019,8,13,5.981,13,3.5V3.005c-2.626,0.108-4.795,2.093-4.985,4.607c-0.134,1.778,0.657,3.453,2.117,4.479
		c0.178,0.125,0.255,0.352,0.189,0.56C10.255,12.858,10.062,13,9.844,13H9.198z"></path><path fill="#FF8A80" d="M16,27.5L16,27.5c-1.933,0-3.5-1.567-3.5-3.5v-0.5h7V24C19.5,25.933,17.933,27.5,16,27.5z
			"></path><path fill="#455A64" d="M16 28c-2.206 0-4-1.794-4-4v-.5c0-.276.224-.5.5-.5h7c.276 0 .5.224.5.5V24C20 26.206 18.206 28 16 28zM13 24c0 1.654 1.346 3 3 3s3-1.346 3-3H13zM18.5 21c-.276 0-.5-.224-.5-.5 0-1.608 1.346-2.917 3-2.917 1.172 0 2.243.669 2.73 1.705.117.25.01.548-.24.665-.25.118-.548.009-.665-.239-.322-.688-1.039-1.131-1.825-1.131-1.103 0-2 .86-2 1.917C19 20.776 18.776 21 18.5 21zM13.5 21c-.276 0-.5-.224-.5-.5 0-1.057-.897-1.917-2-1.917-.786 0-1.502.443-1.825 1.131-.117.249-.417.357-.665.239-.25-.117-.357-.415-.24-.665.487-1.036 1.558-1.705 2.73-1.705 1.654 0 3 1.309 3 2.917C14 20.776 13.776 21 13.5 21z"></path><circle cx="12.5" cy="11.5" r=".5" fill="#455A64"></circle><circle cx="16.5" cy="9.5" r=".5" fill="#455A64"></circle><circle cx="24.5" cy="27.5" r=".5" fill="#455A64"></circle><circle cx="7.5" cy="24.5" r=".5" fill="#455A64"></circle><circle cx="17.5" cy="14.5" r=".5" fill="#455A64"></circle></svg>